<svg xmlns="http://www.w3.org/2000/svg" xmlns:xlink="http://www.w3.org/1999/xlink" width="40" zoomAndPan="magnify" viewBox="0 0 30 30.000001" height="40" preserveAspectRatio="xMidYMid meet" version="1.0"><defs><clipPath id="411f0e3dcb"><path d="M 11.050781 8.710938 L 19.035156 8.710938 L 19.035156 20.324219 L 11.050781 20.324219 Z M 11.050781 8.710938 " clip-rule="nonzero"/></clipPath></defs><g clip-path="url(#411f0e3dcb)"><path fill="#010101" d="M 16.363281 9.808594 L 18.292969 9.808594 L 19.03125 8.710938 L 11.792969 8.710938 L 11.054688 9.808594 L 12.3125 9.808594 C 13.582031 9.808594 14.757812 9.902344 15.226562 10.957031 L 11.792969 10.957031 L 11.054688 12.054688 L 15.367188 12.054688 C 15.367188 12.054688 15.367188 12.058594 15.367188 12.0625 C 15.367188 12.847656 14.703125 14.058594 12.515625 14.058594 L 11.457031 14.058594 L 11.457031 15.082031 L 15.699219 20.324219 L 17.585938 20.324219 L 13.195312 14.902344 C 15.003906 14.804688 16.699219 13.808594 16.941406 12.054688 L 18.292969 12.054688 L 19.03125 10.957031 L 16.921875 10.957031 C 16.839844 10.535156 16.652344 10.125 16.363281 9.808594 Z M 16.363281 9.808594 " fill-opacity="1" fill-rule="nonzero"/></g></svg>